<?xml version="1.0" encoding="UTF-8" standalone="no"?>
<!-- Created with Inkscape (http://www.inkscape.org/) -->

<svg
   width="200.00002"
   height="200"
   viewBox="0 0 200.00002 200"
   version="1.1"
   id="svg1"
   xml:space="preserve"
   inkscape:version="1.4 (1:1.4+202410161351+e7c3feb100)"
   sodipodi:docname="background.svg"
   xmlns:inkscape="http://www.inkscape.org/namespaces/inkscape"
   xmlns:sodipodi="http://sodipodi.sourceforge.net/DTD/sodipodi-0.dtd"
   xmlns:xlink="http://www.w3.org/1999/xlink"
   xmlns="http://www.w3.org/2000/svg"
   xmlns:svg="http://www.w3.org/2000/svg"><sodipodi:namedview
     id="namedview1"
     pagecolor="#ffffff"
     bordercolor="#000000"
     borderopacity="0.25"
     inkscape:showpageshadow="2"
     inkscape:pageopacity="0.0"
     inkscape:pagecheckerboard="0"
     inkscape:deskcolor="#d1d1d1"
     inkscape:document-units="px"
     inkscape:zoom="6.2861793"
     inkscape:cx="51.223483"
     inkscape:cy="50.03039"
     inkscape:window-width="1850"
     inkscape:window-height="1136"
     inkscape:window-x="1990"
     inkscape:window-y="27"
     inkscape:window-maximized="1"
     inkscape:current-layer="g2" /><defs
     id="defs1"><inkscape:perspective
       sodipodi:type="inkscape:persp3d"
       inkscape:vp_x="0 : 150 : 1"
       inkscape:vp_y="0 : 1000 : 0"
       inkscape:vp_z="100 : 150 : 1"
       inkscape:persp3d-origin="50.000001 : 133.33333 : 1"
       id="perspective28" /><inkscape:path-effect
       effect="mirror_symmetry"
       start_point="86.342593,13.616318"
       end_point="86.342593,98.166923"
       center_point="86.342593,55.891621"
       id="path-effect27"
       is_visible="true"
       lpeversion="1.2"
       lpesatellites=""
       mode="free"
       discard_orig_path="false"
       fuse_paths="false"
       oposite_fuse="false"
       split_items="false"
       split_open="false"
       link_styles="false" /><inkscape:path-effect
       effect="sketch"
       id="path-effect26"
       is_visible="true"
       lpeversion="1"
       nbiter_approxstrokes="5"
       parallel_offset="5;1"
       strokelength="100"
       strokelength_rdm="0.3;1"
       strokeoverlap="0.3"
       strokeoverlap_rdm="0.3;1"
       ends_tolerance="0.1;1"
       tremble_size="5;1"
       tremble_frequency="1"
       nbtangents="5"
       tgt_places_rdmness="1;1"
       tgtlength="100"
       tgtlength_rdm="0.3;1"
       tgtscale="10" /><inkscape:path-effect
       effect="fillet_chamfer"
       id="path-effect25"
       is_visible="true"
       lpeversion="1"
       nodesatellites_param="C,0,0,1,0,0,0,1 @ C,0,0,1,0,0,0,1 @ C,0,0,1,0,0,0,1 @ C,0,0,1,0,0,0,1 @ C,0,0,1,0,0,0,1 @ C,0,0,1,0,0,0,1 @ C,0,0,1,0,0,0,1 @ C,0,0,1,0,0,0,1 @ C,0,0,1,0,0,0,1 @ C,0,0,1,0,0,0,1 @ C,0,0,1,0,0,0,1 @ C,0,0,1,0,0,0,1 @ C,0,0,1,0,0,0,1 @ C,0,0,1,0,0,0,1 @ C,0,0,1,0,0,0,1 @ C,0,0,1,0,0,0,1 @ C,0,0,1,0,0,0,1 @ C,0,0,1,0,0,0,1 @ C,0,0,1,0,0,0,1 @ C,0,0,1,0,0,0,1 @ C,0,0,1,0,0,0,1 @ C,0,0,1,0,0,0,1 @ C,0,0,1,0,0,0,1 @ C,0,0,1,0,0,0,1 @ C,0,0,1,0,0,0,1 @ C,0,0,1,0,0,0,1 @ C,0,0,1,0,0,0,1 @ C,0,0,1,0,0,0,1"
       radius="0"
       unit="px"
       method="auto"
       mode="F"
       chamfer_steps="1"
       flexible="false"
       use_knot_distance="true"
       apply_no_radius="true"
       apply_with_radius="true"
       only_selected="false"
       hide_knots="false" /><inkscape:path-effect
       effect="interpolate"
       id="path-effect24"
       is_visible="true"
       lpeversion="1"
       trajectory="M 0,0 V 0"
       equidistant_spacing="true"
       steps="10" /><style
       id="style1">
      .cls-1 {
        fill: none;
      }

      .cls-2 {
        fill: #e95420;
      }

      .cls-3 {
        fill: #fff;
      }
    </style><inkscape:perspective
       sodipodi:type="inkscape:persp3d"
       inkscape:vp_x="103.60101 : 135.26861 : 1"
       inkscape:vp_y="0 : 1000 : 0"
       inkscape:vp_z="203.60101 : 135.26861 : 1"
       inkscape:persp3d-origin="153.60101 : 118.60194 : 1"
       id="perspective28-6" /><inkscape:perspective
       sodipodi:type="inkscape:persp3d"
       inkscape:vp_x="100 : 49.999999 : 1"
       inkscape:vp_y="0 : 1000 : 0"
       inkscape:vp_z="200 : 49.999999 : 1"
       inkscape:persp3d-origin="150 : 33.333332 : 1"
       id="perspective28-2" /><clipPath
       clipPathUnits="userSpaceOnUse"
       id="clipPath2"><rect
         style="fill:#000000;fill-opacity:0.475143;stroke:none;stroke-width:1.45162;stroke-dasharray:none"
         id="rect3"
         width="98.548386"
         height="98.548386"
         x="0.72580886"
         y="0.72580886" /></clipPath></defs><g
     inkscape:label="Layer 1"
     inkscape:groupmode="layer"
     id="layer1"><g
       id="g1"
       style="display:inline;stroke:none"
       transform="matrix(1.0039763,0,0,1.0039763,-0.89342522,-0.75605929)"><g
         id="g2"
         clip-path="url(#clipPath2)"
         style="stroke:none"
         transform="matrix(1.0107111,0,0,1.0107111,0.15630369,0.01948181)"><rect
           style="display:inline;fill:#f0f0f0;fill-opacity:1;stroke:none;stroke-width:0.985484;stroke-dasharray:none;stroke-opacity:1"
           id="rect16"
           width="98.548386"
           height="98.548386"
           x="0.72580886"
           y="0.72580886"
           sodipodi:insensitive="true" /><path
           style="fill:none;fill-opacity:0.475143;stroke:#fdffff;stroke-width:0.985484;stroke-linecap:round;stroke-linejoin:round;stroke-dasharray:none;stroke-opacity:1"
           d="m 47.286476,20.008509 c -6.850288,-4.037847 -10.582053,8.991246 -2.183531,8.523938 4.588445,0.257611 6.058113,-6.404434 2.183531,-8.523938 z"
           id="path31" /><path
           style="fill:none;fill-opacity:0.475143;stroke:#fdffff;stroke-width:0.985484;stroke-linecap:round;stroke-linejoin:round;stroke-dasharray:none;stroke-opacity:1"
           d="m 42.583378,13.894482 c -4.605348,2.949638 -10.134747,8.61693 -6.630669,14.406571 3.728269,5.078027 12.8076,7.586898 17.730244,2.89776 1.784504,-5.019193 9.958193,-4.388382 9.957624,-9.616681 -3.482123,-4.333475 -9.5861,-5.861257 -14.869239,-6.922771 -2.072756,-0.141381 -4.175672,-0.191915 -6.18796,-0.764879 z"
           id="path32" /><path
           style="fill:none;fill-opacity:0.475143;stroke:#fdffff;stroke-width:0.985484;stroke-linecap:round;stroke-linejoin:round;stroke-dasharray:none;stroke-opacity:1"
           d="M 62.493158,7.1533756 C 56.362397,3.0374228 51.681155,13.93034 59.794367,14.054277 c 3.69097,0.368976 5.834409,-4.6611664 2.698791,-6.9009014 z"
           id="path33" /><path
           style="fill:none;fill-opacity:0.475143;stroke:#fdffff;stroke-width:0.985484;stroke-linecap:round;stroke-linejoin:round;stroke-dasharray:none;stroke-opacity:1"
           d="m 73.310282,9.3481546 c -6.332466,-0.025035 -8.70744,7.1736094 -4.150317,11.1871004 2.585301,5.950931 -10.833719,10.168721 -2.845541,14.034993 7.398001,1.627933 10.741253,-8.152701 7.45435,-13.582886 -2.947324,-3.640647 -1.003083,-7.734911 0.257235,-11.0926356 z"
           id="path34" /><path
           style="fill:none;fill-opacity:0.475143;stroke:#fdffff;stroke-width:0.985484;stroke-linecap:round;stroke-linejoin:round;stroke-dasharray:none;stroke-opacity:1"
           d="m 49.481254,4.1747471 c -2.203441,6.3380499 -8.6948,5.2297014 -13.640919,7.5935129 -6.650234,3.787144 -7.781598,13.151613 -4.825843,19.657942 1.852532,4.51777 6.706205,6.903704 11.432317,6.181503 6.369869,2.198746 12.341152,-2.057804 18.518931,-0.720881 5.341622,2.57939 13.103889,4.038881 16.37888,-2.421579 4.658433,-7.292246 1.325039,-16.146088 2.671745,-24.139179 C 78.450968,3.2999007 68.892988,4.8311739 63.452602,3.1369359 59.463016,3.4203356 51.968995,1.3653706 49.481254,4.1747471 Z"
           id="path35" /><path
           style="fill:none;fill-opacity:0.475143;stroke:#fdffff;stroke-width:0.985484;stroke-linecap:round;stroke-linejoin:round;stroke-dasharray:none;stroke-opacity:1"
           d="M 86.322186,-1.7825099 C 82.576553,6.3477912 84.596769,15.398744 84.111329,24.008959 83.99651,29.488191 84.341669,35.371602 80.715305,39.94134 77.133583,46.553502 68.660076,46.165662 62.315912,44.958491 56.284743,43.151295 50.17511,42.178957 43.87105,42.55524 36.664922,42.342653 27.575633,41.147266 24.197962,33.765034 21.489534,27.438673 21.993638,19.951063 24.237574,13.570071 26.926259,7.4165354 34.423052,7.2834652 39.688737,4.6950791 42.108803,3.4821292 43.00388,0.96297016 43.680768,-1.4689701"
           id="path36" /><path
           style="display:inline;fill:none;fill-opacity:0.475143;stroke:#fdffff;stroke-width:0.985483;stroke-linecap:round;stroke-linejoin:round;stroke-dasharray:none;stroke-opacity:1"
           d="M 29.414704,-1.6257399 C 22.205115,0.80170588 17.469058,8.748782 18.80181,16.25145 17.800117,21.434225 20.471783,27.989806 17.149743,32.19207 11.33458,32.887324 4.6000868,36.311061 6.7409231,43.423164 9.4317133,48.7971 1.5008956,56.09976 8.6652164,59.288383 14.526562,58.468462 20.447017,62.37531 20.238535,68.8517 21.028465,76.139735 13.7727,80.547284 7.4618639,81.481184 4.3027203,82.296717 1.0184907,82.179066 -2.0960497,83.186787"
           id="path40" /><path
           style="display:inline;fill:none;fill-opacity:0.475143;stroke:#fdffff;stroke-width:0.985483;stroke-linecap:round;stroke-linejoin:round;stroke-dasharray:none;stroke-opacity:1"
           d="m 14.835102,35.685501 c 1.251801,5.636427 11.936711,5.087637 10.540867,10.533871 -4.046121,1.861777 -10.344129,1.783359 -9.421491,8.089644 -3.803072,5.387778 -9.2304981,-2.794172 -5.476073,-6.661164 1.409039,-3.486219 -0.5257605,-11.659128 4.356697,-11.962351 z"
           id="path39" /><path
           style="display:inline;fill:none;fill-opacity:0.475143;stroke:#fdffff;stroke-width:0.985483;stroke-linecap:round;stroke-linejoin:round;stroke-dasharray:none;stroke-opacity:1"
           d="m 30.668864,49.638024 c -7.439932,-2.00379 -12.191923,7.573205 -7.599512,13.124622 3.22712,6.06497 13.943808,5.873114 14.913067,-1.754945 -0.08268,-5.060122 3.303069,-9.77021 3.609916,-14.125746 -3.337954,-2.111652 -8.833531,-0.416949 -10.923471,2.756069 z"
           id="path38" /><ellipse
           style="display:inline;stroke:#fdffff;fill:none;fill-opacity:0.475143;stroke-width:0.996039;stroke-linecap:round;stroke-linejoin:round;stroke-dasharray:none;stroke-opacity:1"
           id="path37"
           cx="29.252275"
           cy="57.873966"
           rx="3.3274312"
           ry="4.040452"
           transform="matrix(0.98940241,0,0,0.98940241,-0.15464725,-0.01927535)" /><path
           style="fill:none;fill-opacity:0.475143;stroke:#fdffff;stroke-width:0.985484;stroke-linecap:round;stroke-linejoin:round;stroke-dasharray:none;stroke-opacity:1"
           d="M 15.775722,-1.3122001 C 15.990459,5.5583963 11.590696,11.969584 13.55252,18.93179 15.544171,23.545182 9.9025455,32.490266 6.2935565,25.51148 3.794785,19.767777 10.268237,13.479932 5.9878384,8.1501986 4.2702626,5.8455577 1.2004828,4.5983406 -1.6257399,5.2721366"
           id="path41" /><path
           style="fill:none;fill-opacity:0.475143;stroke:#fdffff;stroke-width:0.985484;stroke-linecap:round;stroke-linejoin:round;stroke-dasharray:none;stroke-opacity:1"
           d="m -1.3122001,33.804262 c 6.7716465,2.591435 7.2499274,-8.468671 0.09364,-6.678091 l -0.8774894,0.09376"
           id="path42" /><path
           style="fill:none;fill-opacity:0.475143;stroke:#fdffff;stroke-width:0.985484;stroke-linecap:round;stroke-linejoin:round;stroke-dasharray:none;stroke-opacity:1"
           d="m -5.0746782,62.806698 c 5.97782774,1.049473 14.1799292,-2.606711 18.4792632,2.924472 4.219774,5.936256 -1.318768,11.86479 -7.6793707,11.446342 -3.1905229,0.64363 -6.44215419,1.064216 -9.702503,0.992638"
           id="path43" /><path
           style="fill:none;fill-opacity:0.475143;stroke:#fdffff;stroke-width:0.985484;stroke-linecap:round;stroke-linejoin:round;stroke-dasharray:none;stroke-opacity:1"
           d="M -2.2528197,67.509795 C 1.6326591,66.996068 12.050892,68.486 6.3581574,73.777367 4.0137571,74.884596 1.3578716,74.633779 -1.1554302,74.721212"
           id="path44" /><path
           style="fill:none;fill-opacity:0.475143;stroke:#fdffff;stroke-width:0.985484;stroke-linecap:round;stroke-linejoin:round;stroke-dasharray:none;stroke-opacity:1"
           d="m -3.8205189,87.106036 c 7.564254,2.06922 16.6744239,1.228808 22.6064679,-4.276051 4.406373,-3.540353 4.530353,-16.752749 12.285387,-11.385995 4.94002,5.640916 -3.157876,11.328843 -0.774293,17.856192 -0.03709,4.362342 0.427637,8.678352 0.528591,13.012528"
           id="path45" /><path
           style="fill:none;fill-opacity:0.475143;stroke:#fdffff;stroke-width:0.985484;stroke-linecap:round;stroke-linejoin:round;stroke-dasharray:none;stroke-opacity:1"
           d="m 24.398067,79.26754 c 3.718054,-4.200371 5.110139,2.403644 2.506512,4.777122 0.604767,5.013356 0.01067,14.141831 -7.517188,11.082977 -7.572356,-3.540436 1.097691,-8.724958 3.451022,-12.480468 0.594919,-1.090685 1.081249,-2.234712 1.559654,-3.379631 z"
           id="path46" /><path
           style="fill:none;fill-opacity:0.475143;stroke:#fdffff;stroke-width:0.985484;stroke-linecap:round;stroke-linejoin:round;stroke-dasharray:none;stroke-opacity:1"
           d="m -2.0960497,93.063292 c 5.2023333,-0.03076 13.1089437,-3.09389 14.6952777,4.366445 0.194899,1.360468 -0.100479,2.748263 0.197865,4.099133"
           id="path47" /><path
           style="fill:none;fill-opacity:0.475143;stroke:#fdffff;stroke-width:0.985484;stroke-linecap:round;stroke-linejoin:round;stroke-dasharray:none;stroke-opacity:1"
           d="M 0.09872918,96.982541 C 2.3403078,96.433117 5.0720617,98.223246 4.3315172,100.74502"
           id="path48" /><path
           style="fill:none;fill-opacity:0.475143;stroke:#fdffff;stroke-width:0.985484;stroke-linecap:round;stroke-linejoin:round;stroke-dasharray:none;stroke-opacity:1"
           d="m 67.196256,65.001477 c -6.370089,-5.601619 -11.151528,8.935822 -2.33668,7.320547 6.470861,-1.277965 2.765557,13.698677 10.824673,6.928122 5.730722,-3.407044 -2.3776,-8.439791 -1.057601,-13.378684 0.192171,-3.906505 -7.367172,-4.414015 -7.430392,-0.869985 z"
           id="path49"
           sodipodi:nodetypes="ccccc" /><path
           style="fill:none;fill-opacity:0.475143;stroke:#fdffff;stroke-width:0.985484;stroke-linecap:round;stroke-linejoin:round;stroke-dasharray:none;stroke-opacity:1"
           d="m 66.725945,58.73068 c -5.638124,-1.294316 -13.311657,0.449892 -13.968719,7.295345 -1.192876,7.357919 6.212707,9.86746 11.778519,10.653286 3.275876,5.196162 4.99967,16.698922 13.937558,7.980934 8.089813,-2.362776 4.810528,-11.36918 1.131353,-16.126385 -0.212702,-5.299888 -1.262662,-13.165046 -8.75399,-11.821854 -1.737321,-0.05594 -2.699523,1.722467 -4.124721,2.018674 z"
           id="path50"
           sodipodi:nodetypes="ccccccc" /><path
           style="fill:none;fill-opacity:0.475143;stroke:#fdffff;stroke-width:0.985484;stroke-linecap:round;stroke-linejoin:round;stroke-dasharray:none;stroke-opacity:1"
           d="m 56.535901,48.383865 c -9.117269,-5.986014 -12.327007,2.681409 -1.189777,6.326187 10.21798,-1.244679 9.876536,-8.726524 1.189777,-6.326187 z"
           id="path51"
           sodipodi:nodetypes="ccc" /><path
           style="fill:none;fill-opacity:0.475143;stroke:#fdffff;stroke-width:0.985484;stroke-linecap:round;stroke-linejoin:round;stroke-dasharray:none;stroke-opacity:1"
           d="m 101.99918,62.493158 c -6.176724,0.959157 -13.151919,-0.740205 -14.698826,-7.645695 -1.871595,-9.55378 -8.635973,-7.914216 -18.548261,-2.527221 4.062421,1.503749 14.324542,0.236531 13.94343,7.584769 0.844485,6.221721 7.121654,9.856716 7.444925,16.237599 1.041947,6.63746 -2.179816,13.903133 -9.116187,15.639354 C 75.61052,95.270003 65.68248,98.817578 63.575382,88.838679 63.006974,80.94395 53.122978,81.767565 48.681025,77.259397 44.361967,72.210069 49.92209,65.643456 48.287956,59.992236 c -1.423984,-5.215415 -7.063544,-2.584786 -5.145581,2.107215 0.856022,5.401231 -3.291958,8.409058 -7.604503,9.875189 -1.959784,7.044325 7.105261,7.189256 10.886806,9.72586 2.730971,4.435056 10.72166,5.526685 12.633742,10.364883 1.360384,2.943855 1.683703,8.006667 1.083189,11.815037"
           id="path52"
           sodipodi:nodetypes="cccccccccccccc" /><path
           style="fill:none;fill-opacity:0.475143;stroke:#fdffff;stroke-width:0.985484;stroke-linecap:round;stroke-linejoin:round;stroke-dasharray:none;stroke-opacity:1"
           d="m 81.462319,101.99918 c -2.598213,-7.482331 9.830349,-4.45661 12.086202,-10.04346 1.976044,-3.109271 1.283449,-8.930759 6.09911,-9.396012"
           id="path53" /><path
           style="fill:none;fill-opacity:0.475143;stroke:#fdffff;stroke-width:0.985484;stroke-linecap:round;stroke-linejoin:round;stroke-dasharray:none;stroke-opacity:1"
           d="m 100.11794,93.220062 c -3.825908,0.226617 -6.800017,4.291817 -8.46558,7.054638"
           id="path54" /><path
           style="fill:none;fill-opacity:0.475143;stroke:#fdffff;stroke-width:0.985484;stroke-linecap:round;stroke-linejoin:round;stroke-dasharray:none;stroke-opacity:1"
           d="m 101.52887,67.823335 c -3.281246,0.348847 -12.298588,-2.263446 -8.511359,3.270467 -1.112032,6.215781 3.960127,11.726124 9.947029,7.339514 l 0.91587,-0.419937"
           id="path55" /><path
           style="fill:none;fill-opacity:0.475143;stroke:#fdffff;stroke-width:0.985484;stroke-linecap:round;stroke-linejoin:round;stroke-dasharray:none;stroke-opacity:1"
           d="m 100.58825,71.899353 c -4.873125,-1.376929 -3.10768,4.342401 0,5.016637"
           id="path56" /><path
           style="fill:none;fill-opacity:0.475143;stroke:#fdffff;stroke-width:0.985484;stroke-linecap:round;stroke-linejoin:round;stroke-dasharray:none;stroke-opacity:1"
           d="m 35.371961,104.19395 c 1.781034,-5.880613 1.974058,-12.045159 1.132038,-17.999545 3.679002,-6.180657 6.643233,2.789498 10.765448,3.309876 5.667015,1.545106 3.846521,7.686569 4.249817,12.024589"
           id="path57" /><path
           style="fill:none;fill-opacity:0.475143;stroke:#fdffff;stroke-width:0.985484;stroke-linecap:round;stroke-linejoin:round;stroke-dasharray:none;stroke-opacity:1"
           d="m 41.015678,100.74502 c -0.557888,-4.840724 6.751689,-9.242639 5.957262,-0.31354"
           id="path58" /><path
           style="fill:none;fill-opacity:0.475143;stroke:#fdffff;stroke-width:0.985484;stroke-linecap:round;stroke-linejoin:round;stroke-dasharray:none;stroke-opacity:1"
           d="M 103.88041,56.69267 C 98.668958,57.203673 88.883683,59.212611 89.971151,50.778228 88.222947,44.819204 83.283256,38.766808 88.089004,32.826423 91.787436,28.136111 87.221331,19.178366 94.459947,17.440808 96.40664,16.94342 98.437462,16.939759 100.43148,17.029881"
           id="path59" /><path
           style="fill:none;fill-opacity:0.475143;stroke:#fdffff;stroke-width:0.985484;stroke-linecap:round;stroke-linejoin:round;stroke-dasharray:none;stroke-opacity:1"
           d="m 101.68564,22.673598 c -5.827771,-2.139018 -9.54285,4.365083 -6.735575,9.160347 -1.368797,5.131848 -5.021946,9.826495 -1.958288,15.158453 0.317454,5.11308 5.149128,8.045539 9.791253,5.624255"
           id="path60" /><path
           style="fill:none;fill-opacity:0.475143;stroke:#fdffff;stroke-width:0.985484;stroke-linecap:round;stroke-linejoin:round;stroke-dasharray:none;stroke-opacity:1"
           d="m 101.52887,47.286476 c -3.942911,3.931805 -9.754722,-3.563039 -5.198461,-6.685123 1.09301,-0.835499 2.569643,-1.391255 3.944291,-0.996604"
           id="path61" /><path
           style="fill:none;fill-opacity:0.475143;stroke:#fdffff;stroke-width:0.985484;stroke-linecap:round;stroke-linejoin:round;stroke-dasharray:none;stroke-opacity:1"
           d="M 102.78303,13.110632 C 98.266575,15.215396 90.54094,14.767343 89.229399,8.9636042 88.612542,6.1468378 89.162587,3.2587594 88.987274,0.41226902"
           id="path62" /><path
           style="fill:none;fill-opacity:0.475143;stroke:#fdffff;stroke-width:0.985484;stroke-linecap:round;stroke-linejoin:round;stroke-dasharray:none;stroke-opacity:1"
           d="M 92.906523,-1.1554302 C 91.373929,3.9281269 93.47542,11.990134 100.2735,10.251786 l 0.62829,-0.119782"
           id="path63" /><path
           style="fill:none;fill-opacity:0.475143;stroke:#fdffff;stroke-width:0.985484;stroke-linecap:round;stroke-linejoin:round;stroke-dasharray:none;stroke-opacity:1"
           d="m 97.45285,0.09872918 c 0.04407,1.81709352 0.404299,5.22376432 2.97863,4.85986752"
           id="path64" /></g></g><use
       x="0"
       y="0"
       xlink:href="#g1"
       id="use1"
       transform="matrix(-0.99999997,0,0,0.99999997,200,0)"
       style="display:inline;opacity:1"
       sodipodi:insensitive="true" /><use
       x="0"
       y="0"
       xlink:href="#g1"
       id="use3"
       transform="matrix(0.99999997,0,0,-0.99999997,0,200)"
       sodipodi:insensitive="true"
       style="display:inline;opacity:1" /><use
       x="0"
       y="0"
       xlink:href="#g1"
       id="use4"
       transform="rotate(180,99.999999,99.999999)"
       sodipodi:insensitive="true"
       style="display:inline;opacity:1" /></g></svg>
